<?xml version="1.0" encoding="UTF-8" standalone="no"?>
<!-- Generator: Adobe Illustrator 15.1.1, SVG Export Plug-In . SVG Version: 6.00 Build 0)  -->

<svg
   xmlns:dc="http://purl.org/dc/elements/1.1/"
   xmlns:cc="http://creativecommons.org/ns#"
   xmlns:rdf="http://www.w3.org/1999/02/22-rdf-syntax-ns#"
   xmlns:svg="http://www.w3.org/2000/svg"
   xmlns="http://www.w3.org/2000/svg"
   xmlns:sodipodi="http://sodipodi.sourceforge.net/DTD/sodipodi-0.dtd"
   xmlns:inkscape="http://www.inkscape.org/namespaces/inkscape"
   version="1.1"
   id="Layer_1"
   x="0px"
   y="0px"
   width="993.64172"
   height="175.80525"
   viewBox="0 0 993.64169 175.80525"
   enable-background="new 0 0 160 42"
   xml:space="preserve"
   sodipodi:docname="01_FirstData_g0.svg"
   inkscape:version="0.92.3 (2405546, 2018-03-11)"><metadata
   id="metadata31"><rdf:RDF><cc:Work
       rdf:about=""><dc:format>image/svg+xml</dc:format><dc:type
         rdf:resource="http://purl.org/dc/dcmitype/StillImage" /><dc:title></dc:title></cc:Work></rdf:RDF></metadata><defs
   id="defs29" /><sodipodi:namedview
   pagecolor="#ffffff"
   bordercolor="#666666"
   borderopacity="1"
   objecttolerance="10"
   gridtolerance="10"
   guidetolerance="10"
   inkscape:pageopacity="0"
   inkscape:pageshadow="2"
   inkscape:window-width="1853"
   inkscape:window-height="1025"
   id="namedview27"
   showgrid="false"
   inkscape:zoom="1"
   inkscape:cx="381.33964"
   inkscape:cy="120.26525"
   inkscape:window-x="67"
   inkscape:window-y="27"
   inkscape:window-maximized="1"
   inkscape:current-layer="Layer_1" />
<g
   id="g24"
   transform="matrix(7.6871555,0,0,7.6871555,-40.818796,-41.971869)"
   style="fill:#6c757d;fill-opacity:1">
	<rect
   x="22.35"
   y="11.84"
   width="3.71"
   height="16.110001"
   id="rect2"
   style="fill:#6c757d;fill-opacity:1" />
	<path
   d="m 37.25,15.31 c 0,0 -0.28,-0.04 -0.48,-0.08 -0.32,-0.08 -0.73,-0.08 -1.13,-0.08 -1.78,0 -3.67,0.97 -3.67,4 v 8.8 H 28.26 V 11.84 h 3.71 v 2.18 c 0.65,-1.17 2.22,-2.55 4.4,-2.55 0.29,0 0.69,0.04 0.89,0.08 v 3.76 z"
   id="path4"
   inkscape:connector-curvature="0"
   style="fill:#6c757d;fill-opacity:1" />
	<path
   d="m 47.5,16.04 c -0.89,-0.77 -2.22,-1.29 -3.27,-1.29 -1.5,0 -2.22,0.77 -2.22,1.62 0,0.73 0.29,1.57 2.58,2.14 4.2,1.09 5.62,2.31 5.62,5.05 0,2.75 -1.94,4.77 -6.14,4.77 -2.42,0 -4.65,-0.73 -6.51,-2.34 l 2.06,-2.83 c 1.29,1.33 2.91,1.9 4.44,1.9 1.61,0 2.34,-0.68 2.34,-1.62 0,-0.85 -0.69,-1.45 -2.95,-2.06 -3.91,-1.01 -5.17,-2.63 -5.17,-5.17 0,-2.1 1.66,-4.73 5.94,-4.73 1.98,0 3.88,0.65 5.25,1.82 z"
   id="path6"
   inkscape:connector-curvature="0"
   style="fill:#6c757d;fill-opacity:1" />
	<path
   d="m 60.39,24.55 1.25,2.99 c -0.77,0.48 -2.02,0.77 -3.19,0.77 -3.6,0 -5.33,-1.86 -5.33,-5.29 v -7.95 h -2.26 v -3.23 h 2.26 v -3.4 h 3.72 v 3.39 h 3.67 v 3.23 h -3.67 v 8 c 0,1.37 0.73,2.02 1.81,2.02 0.73,0 1.17,-0.16 1.74,-0.53"
   id="path8"
   inkscape:connector-curvature="0"
   style="fill:#6c757d;fill-opacity:1" />
	<path
   d="m 112.52,24.55 1.25,2.99 c -0.77,0.48 -2.02,0.77 -3.15,0.77 -3.63,0 -5.37,-1.86 -5.37,-5.29 v -7.95 h -2.26 v -3.23 h 2.26 v -3.4 h 3.71 v 3.39 h 3.68 v 3.23 h -3.68 v 8 c 0,1.37 0.69,2.02 1.82,2.02 0.73,0 1.18,-0.16 1.74,-0.53"
   id="path10"
   inkscape:connector-curvature="0"
   style="fill:#6c757d;fill-opacity:1" />
	<path
   d="m 94.31,25.4 c 2.06,0 4,-1.86 4,-4.2 -1.13,-0.4 -2.67,-0.65 -4.04,-0.65 -2.34,0 -3.43,1.29 -3.43,2.5 0,1.55 1.49,2.35 3.47,2.35 M 88.86,12.97 c 0,0 0.28,-0.16 0.53,-0.29 1.57,-0.76 3.39,-1.21 5.04,-1.21 5.17,0 7.59,1.9 7.59,6.54 v 9.93 h -3.71 v -1.86 c -1.05,1.5 -2.54,2.22 -4.93,2.22 -3.92,0 -6.01,-2.14 -6.01,-5.25 0,-3.15 2.26,-5.37 6.34,-5.37 1.78,0 3.64,0.37 4.65,0.69 v -0.29 c 0,-2.22 -1.09,-3.23 -4,-3.23 -1.49,0 -2.83,0.37 -4.08,1.13 z"
   id="path12"
   inkscape:connector-curvature="0"
   style="fill:#6c757d;fill-opacity:1" />
	<path
   d="m 121.04,25.4 c 2.06,0 4,-1.86 4,-4.2 -1.09,-0.4 -2.67,-0.65 -4.04,-0.65 -2.34,0 -3.43,1.29 -3.43,2.5 0,1.55 1.49,2.35 3.47,2.35 m -5.41,-12.43 c 0,0 0.24,-0.16 0.48,-0.29 1.57,-0.76 3.39,-1.21 5.05,-1.21 5.17,0 7.59,1.9 7.59,6.54 v 9.93 h -3.72 v -1.86 c -1.05,1.5 -2.54,2.22 -4.88,2.22 -3.96,0 -6.06,-2.14 -6.06,-5.25 0,-3.15 2.26,-5.37 6.38,-5.37 1.73,0 3.63,0.37 4.6,0.69 v -0.29 c 0,-2.22 -1.09,-3.23 -4,-3.23 -1.49,0 -2.83,0.37 -4.08,1.13 z"
   id="path14"
   inkscape:connector-curvature="0"
   style="fill:#6c757d;fill-opacity:1" />
	<path
   d="m 75.25,24.39 c 4.77,0 7.83,-3.19 7.83,-7.59 v -0.08 c 0,-4.4 -3.07,-7.67 -7.83,-7.67 H 70.81 V 24.4 h 4.44 z M 66.85,5.46 h 8.4 c 7.11,0 11.99,4.85 11.99,11.23 v 0.04 c 0,6.38 -4.88,11.31 -11.99,11.31 h -8.4 z"
   id="path16"
   inkscape:connector-curvature="0"
   style="fill:#6c757d;fill-opacity:1" />
	<polygon
   points="19.64,18.82 9.26,18.82 9.26,28.03 5.31,28.03 5.31,5.46 21.09,5.46 21.09,9.09 9.26,9.09 9.26,15.23 19.64,15.23 "
   id="polygon18"
   style="fill:#6c757d;fill-opacity:1" />
	<g
   id="g22"
   style="fill:#6c757d;fill-opacity:1">
		<path
   d="m 132.35,23.67 c 1.21,0 2.22,1.01 2.22,2.22 0,1.21 -1.01,2.22 -2.22,2.22 -1.25,0 -2.22,-1.01 -2.22,-2.22 0,-1.21 0.97,-2.22 2.22,-2.22 z m 0,4.08 c 1.01,0 1.86,-0.85 1.86,-1.86 0,-1.01 -0.85,-1.86 -1.86,-1.86 -1.05,0 -1.9,0.85 -1.9,1.86 0,1.01 0.85,1.86 1.9,1.86 z m 0.08,-1.54 h -0.48 v 0.68 h -0.37 v -2.02 h 0.85 c 0.4,0 0.73,0.16 0.73,0.65 0,0.32 -0.16,0.53 -0.37,0.61 l 0.4,0.76 h -0.4 z m -0.48,-1.01 v 0.65 h 0.48 c 0.24,0 0.36,-0.08 0.36,-0.32 0,-0.2 -0.12,-0.32 -0.36,-0.32 h -0.48 z"
   id="path20"
   inkscape:connector-curvature="0"
   style="fill:#6c757d;fill-opacity:1" />
	</g>
</g>
</svg>