<?xml version="1.0" encoding="UTF-8" standalone="no"?>
<!-- Created with Inkscape (http://www.inkscape.org/) -->

<svg
   xmlns:dc="http://purl.org/dc/elements/1.1/"
   xmlns:cc="http://creativecommons.org/ns#"
   xmlns:rdf="http://www.w3.org/1999/02/22-rdf-syntax-ns#"
   xmlns:svg="http://www.w3.org/2000/svg"
   xmlns="http://www.w3.org/2000/svg"
   xmlns:sodipodi="http://sodipodi.sourceforge.net/DTD/sodipodi-0.dtd"
   xmlns:inkscape="http://www.inkscape.org/namespaces/inkscape"
   version="1.1"
   id="svg2"
   xml:space="preserve"
   width="580.27478"
   height="178.98"
   viewBox="0 0 580.27478 178.98"
   sodipodi:docname="10_Credibanco_g.svg"
   inkscape:version="0.92.3 (2405546, 2018-03-11)"><metadata
     id="metadata8"><rdf:RDF><cc:Work
         rdf:about=""><dc:format>image/svg+xml</dc:format><dc:type
           rdf:resource="http://purl.org/dc/dcmitype/StillImage" /><dc:title /></cc:Work></rdf:RDF></metadata><defs
     id="defs6"><clipPath
       clipPathUnits="userSpaceOnUse"
       id="clipPath18"><path
         d="M 0,151.852 H 451.852 V 0 H 0 Z"
         id="path16"
         inkscape:connector-curvature="0" /></clipPath></defs><sodipodi:namedview
     pagecolor="#ffffff"
     bordercolor="#666666"
     borderopacity="1"
     objecttolerance="10"
     gridtolerance="10"
     guidetolerance="10"
     inkscape:pageopacity="0"
     inkscape:pageshadow="2"
     inkscape:window-width="640"
     inkscape:window-height="480"
     id="namedview4"
     showgrid="false"
     inkscape:zoom="0.55604487"
     inkscape:cx="291.45975"
     inkscape:cy="89.383332"
     inkscape:window-x="67"
     inkscape:window-y="27"
     inkscape:window-maximized="0"
     inkscape:current-layer="g10" /><g
     id="g10"
     inkscape:groupmode="layer"
     inkscape:label="credibanco_logo"
     transform="matrix(1.3333333,0,0,-1.3333333,-9.7749331,190.83133)"><g
       id="g12"
       style="fill:#6c757d;fill-opacity:1"><g
         id="g14"
         clip-path="url(#clipPath18)"
         style="fill:#6c757d;fill-opacity:1"><g
           id="g20"
           transform="translate(141.8066,65.5117)"
           style="fill:#6c757d;fill-opacity:1"><path
             d="m 0,0 c 0,-7.075 3.141,-9.591 11.369,-9.591 2.924,0 7.005,0.332 10.068,0.878 l 0.482,-3.475 c -3.409,-0.669 -7.626,-1.019 -10.886,-1.019 -10.962,0 -15.045,4.705 -15.045,13.133 v 20.421 c 0,8.434 4.083,13.135 15.045,13.135 3.26,0 7.477,-0.343 10.886,-1.019 L 21.437,28.986 C 18.374,29.531 14.293,29.872 11.369,29.872 3.141,29.872 0,27.352 0,20.275 Z"
             style="fill:#6c757d;fill-opacity:1;fill-rule:nonzero;stroke:none"
             id="path22"
             inkscape:connector-curvature="0" /></g><g
           id="g24"
           transform="translate(187.6777,82.9326)"
           style="fill:#6c757d;fill-opacity:1"><path
             d="m 0,0 c -3.472,-1.495 -7.286,-4.017 -10.488,-6.126 v -23.822 h -3.941 v 33.15 h 3.536 l 0.206,-5.037 c 3.538,2.306 7.08,4.559 10.208,5.713 z"
             style="fill:#6c757d;fill-opacity:1;fill-rule:nonzero;stroke:none"
             id="path26"
             inkscape:connector-curvature="0" /></g><g
           id="g28"
           transform="translate(198.0859,71.9131)"
           style="fill:#6c757d;fill-opacity:1"><path
             d="m 0,0 h 16.612 v 2.989 c 0,5.578 -1.979,8.501 -8.17,8.501 C 2.251,11.49 0,8.567 0,2.989 Z m 8.649,-16.132 c 3.4,0 7.214,0.673 10.476,1.561 l 0.68,-3.198 c -3.056,-1.083 -7.412,-1.839 -11.434,-1.839 -9.325,0 -12.313,4.828 -12.313,12.048 V 2.85 c 0,6.805 3.059,12.047 12.384,12.047 9.325,0 12.044,-5.242 12.044,-12.047 V -3.546 H 0 v -4.145 c 0,-5.925 2.041,-8.441 8.649,-8.441"
             style="fill:#6c757d;fill-opacity:1;fill-rule:nonzero;stroke:none"
             id="path30"
             inkscape:connector-curvature="0" /></g><g
           id="g32"
           transform="translate(246.4717,82.1143)"
           style="fill:#6c757d;fill-opacity:1"><path
             d="m 0,0 c -3.607,0.753 -7.141,1.157 -10.347,1.157 -4.354,0 -6.118,-2.174 -6.118,-6.666 v -15.114 c 0,-3.81 1.225,-5.64 5.71,-5.64 4.09,0 7.623,1.7 10.755,4.215 z m -20.412,-5.509 c 0,6.053 2.723,10.205 10.196,10.205 3.49,0 6.404,-0.343 10.216,-1.088 v 13.956 l 3.947,0.54 V -29.13 H 0.341 l -0.193,3.138 c -3.34,-2.527 -7.502,-3.818 -11.174,-3.818 -6.46,0 -9.386,3.204 -9.386,9.187 z"
             style="fill:#6c757d;fill-opacity:1;fill-rule:nonzero;stroke:none"
             id="path34"
             inkscape:connector-curvature="0" /></g><path
           d="m 261.992,86.135 h 3.952 v -33.15 h -3.952 z m 0,13.544 h 3.952 v -7.29 h -3.952 z"
           style="fill:#6c757d;fill-opacity:1;fill-rule:nonzero;stroke:none"
           id="path36"
           inkscape:connector-curvature="0" /><g
           id="g38"
           transform="translate(281.4492,56.5967)"
           style="fill:#6c757d;fill-opacity:1"><path
             d="m 0,0 c 2.586,-0.475 5.247,-0.676 7.623,-0.676 7.147,0 8.855,2.986 8.855,7.956 v 13.334 c 0,3.948 -1.77,5.787 -6.132,5.787 C 6.339,26.401 3.131,25.312 0,23.543 Z M 20.422,7.421 C 20.422,0 17.146,-4.292 7.152,-4.292 c -2.865,0 -8.025,0.476 -11.096,1.229 V 43.082 L 0,43.622 v -15.92 c 2.729,1.424 6.404,2.512 10.891,2.512 6.666,0 9.531,-3.813 9.531,-9.664 z"
             style="fill:#6c757d;fill-opacity:1;fill-rule:nonzero;stroke:none"
             id="path40"
             inkscape:connector-curvature="0" /></g><g
           id="g42"
           transform="translate(330.2568,67.208)"
           style="fill:#6c757d;fill-opacity:1"><path
             d="m 0,0 h -9.675 c -4.552,0 -5.909,-1.358 -5.909,-5.717 0,-3.878 0.802,-5.639 5.442,-5.639 3.261,0 7.14,1.281 10.142,3.397 z M 3.946,-14.224 H 0.535 l -0.276,2.596 c -3.187,-1.984 -6.868,-3.275 -11.224,-3.275 -5.854,0 -8.57,3.33 -8.57,9.263 0,7.002 3.199,9.181 9.73,9.181 H 0 v 6.462 c 0,4.563 -2.389,6.06 -7.832,6.06 -3.269,0 -6.74,-0.474 -9.799,-1.084 l -0.617,3.331 c 2.664,0.746 6.801,1.293 10.217,1.293 8.566,0 11.977,-3.408 11.977,-9.6 z"
             style="fill:#6c757d;fill-opacity:1;fill-rule:nonzero;stroke:none"
             id="path44"
             inkscape:connector-curvature="0" /></g><g
           id="g46"
           transform="translate(365.3672,52.9844)"
           style="fill:#6c757d;fill-opacity:1"><path
             d="m 0,0 v 26.82 c 0,2.453 -1.294,3.329 -3.607,3.329 -2.726,0 -8.58,-1.626 -12.732,-3.812 V 0 h -3.944 v 33.15 h 3.469 l 0.278,-3.001 c 3.542,1.711 9.461,3.677 13.471,3.677 5.174,0 7.009,-2.924 7.009,-7.489 L 3.944,0 Z"
             style="fill:#6c757d;fill-opacity:1;fill-rule:nonzero;stroke:none"
             id="path48"
             inkscape:connector-curvature="0" /></g><g
           id="g50"
           transform="translate(389.7305,67.8252)"
           style="fill:#6c757d;fill-opacity:1"><path
             d="m 0,0 c 0,-3.948 1.29,-6.257 6.335,-6.257 3.259,0 7.748,0.397 11.695,1.084 l 1.43,-8.909 c -4.489,-0.963 -8.57,-1.439 -13.125,-1.439 -11.44,0 -16.542,5.653 -16.542,13.885 v 18.915 c 0,8.238 5.102,13.89 16.542,13.89 4.555,0 8.636,-0.476 13.125,-1.434 L 18.03,20.816 C 14.083,21.501 9.594,21.913 6.335,21.913 1.29,21.913 0,19.595 0,15.651 Z"
             style="fill:#6c757d;fill-opacity:1;fill-rule:nonzero;stroke:none"
             id="path52"
             inkscape:connector-curvature="0" /></g><g
           id="g54"
           transform="translate(432.7393,65.4375)"
           style="fill:#6c757d;fill-opacity:1"><path
             d="m 0,0 v 8.24 c 0,3.129 -1.637,4.899 -5.166,4.899 -3.543,0 -5.173,-1.77 -5.173,-4.899 V 0 c 0,-3.123 1.63,-4.896 5.173,-4.896 C -1.637,-4.896 0,-3.123 0,0 m -20.14,0.279 v 7.687 c 0,6.809 3.199,13.407 14.974,13.407 11.774,0 14.964,-6.598 14.964,-13.407 V 0.279 c 0,-6.81 -3.19,-13.412 -14.964,-13.412 -11.775,0 -14.974,6.602 -14.974,13.412"
             style="fill:#6c757d;fill-opacity:1;fill-rule:nonzero;stroke:none"
             id="path56"
             inkscape:connector-curvature="0" /></g><g
           id="g58"
           transform="translate(83.0322,9.4365)"
           style="fill:#6c757d;fill-opacity:1"><path
             d="m 0,0 c -2.838,-0.366 -5.714,-0.548 -8.585,-0.548 -37.014,0 -67.116,30.11 -67.116,67.111 0,37.013 30.102,67.124 67.116,67.124 2.871,0 5.723,-0.184 8.563,-0.541 l -0.01,-18.106 c -2.816,0.498 -5.682,0.75 -8.553,0.75 -27.144,0 -49.222,-22.088 -49.222,-49.227 0,-27.126 22.078,-49.21 49.222,-49.21 2.89,0 5.76,0.251 8.585,0.738 z"
             style="fill:#6c757d;fill-opacity:1;fill-rule:nonzero;stroke:none"
             id="path60"
             inkscape:connector-curvature="0" /></g><g
           id="g62"
           transform="translate(78.2148,93.1357)"
           style="fill:#6c757d;fill-opacity:1"><path
             d="m 0,0 c -9.841,0 -17.838,-8.009 -17.838,-17.839 0,-9.835 7.997,-17.836 17.838,-17.836 9.826,0 17.838,8.001 17.838,17.836 C 17.838,-8.009 9.826,0 0,0 m 0,-53.57 c -19.707,0 -35.739,16.027 -35.739,35.731 0,19.705 16.032,35.729 35.739,35.729 19.694,0 35.726,-16.024 35.726,-35.729 C 35.726,-37.543 19.694,-53.57 0,-53.57"
             style="fill:#6c757d;fill-opacity:1;fill-rule:nonzero;stroke:none"
             id="path64"
             inkscape:connector-curvature="0" /></g></g></g></g></svg>